<svg width="101" height="89" viewBox="0 0 101 89" fill="none" xmlns="http://www.w3.org/2000/svg">
<g filter="url(#filter0_d_3120_31)">
<path d="M62.6727 34.6445H59.4047C59.202 36.1786 57.8847 37.3547 56.314 37.3547V40.6274C59.6833 40.6274 62.4447 37.9939 62.6727 34.6445Z" fill="#242424"/>
<path d="M62.6728 33.775C62.4702 30.4256 59.6835 27.7666 56.3141 27.7666V31.0393C57.9101 31.0393 59.2275 32.2409 59.4301 33.775H62.6728Z" fill="#242424"/>
<path d="M62.6728 43.4137C62.4702 40.0643 59.6835 37.4053 56.3141 37.4053V40.6779C57.9101 40.6779 59.2275 41.8796 59.4301 43.4137H62.6728Z" fill="#242424"/>
<path d="M62.6727 44.2832H59.4047C59.202 45.8173 57.8847 46.9934 56.314 46.9934V50.266C59.6833 50.266 62.4447 47.6326 62.6727 44.2832Z" fill="#242424"/>
<path d="M39.3403 0C36.0216 0.204541 33.3869 3.01698 33.3869 6.41748H36.6296C36.6296 4.80672 37.8203 3.4772 39.3403 3.27266V0Z" fill="#242424"/>
<path d="M55.4526 27.8176C52.1339 28.0477 49.4992 30.8346 49.4992 34.2351H52.7419C52.7419 32.6243 53.9326 31.3204 55.4526 31.0903V27.8176Z" fill="#242424"/>
<path d="M40.1765 0V3.29823C41.6965 3.50277 42.8618 4.83229 42.8618 6.41748H46.1045C46.1299 3.01698 43.4952 0.230109 40.1765 0Z" fill="#242424"/>
<path d="M56.238 8.87207V12.1703C57.758 12.3748 58.9234 13.7044 58.9234 15.2896H62.1661C62.1914 11.8635 59.5567 9.07661 56.238 8.87207Z" fill="#242424"/>
<path d="M40.1512 22.6785C43.4699 22.4739 46.1046 19.6615 46.1046 16.261H42.8619C42.8619 17.8717 41.6712 19.2013 40.1512 19.4058V22.6785Z" fill="#242424"/>
<path d="M39.3152 22.6529V19.3802C37.7951 19.1757 36.6298 17.8462 36.6298 16.261H33.3871C33.3617 19.6615 35.9964 22.4484 39.3152 22.6529Z" fill="#242424"/>
<path d="M26.4203 0.460205H23.2029V22.1416H26.4203V0.460205Z" fill="#242424"/>
<path d="M36.6299 9.63892H27.2311V12.886H36.6299V9.63892Z" fill="#242424"/>
<path d="M62.1914 0.460205H49.4486V3.7073H62.1914V0.460205Z" fill="#242424"/>
<path d="M46.1046 9.63892H42.8619V12.886H46.1046V9.63892Z" fill="#242424"/>
<path d="M56.998 8.87207H53.7553V12.1192H56.998V8.87207Z" fill="#242424"/>
<path d="M39.3152 27.6899C35.9965 27.8945 33.3618 30.7069 33.3618 34.1074H36.6045C36.6045 32.4967 37.7952 31.1671 39.3152 30.9626V27.6899Z" fill="#242424"/>
<path d="M40.1765 27.6899V30.9882C41.6965 31.1927 42.8618 32.5222 42.8618 34.1074H46.1045C46.1045 30.7069 43.4698 27.9201 40.1765 27.6899Z" fill="#242424"/>
<path d="M40.1512 50.4961C43.4699 50.2916 46.1046 47.4791 46.1046 44.0786H42.8619C42.8619 45.6894 41.6712 47.0189 40.1512 47.2234V50.4961Z" fill="#242424"/>
<path d="M39.2899 50.4961V47.1979C37.7699 46.9933 36.6045 45.6638 36.6045 44.0786H33.3618C33.3618 47.4791 35.9712 50.266 39.2899 50.4961Z" fill="#242424"/>
<path d="M46.1046 35.0276H42.8619V43.1325H46.1046V35.0276Z" fill="#242424"/>
<path d="M52.7672 33.3403H49.5245V36.5874H52.7672V33.3403Z" fill="#242424"/>
<path d="M52.7672 41.522H49.5245V44.7691H52.7672V41.522Z" fill="#242424"/>
<path d="M58.0622 37.3289H49.3981V40.5759H58.0622V37.3289Z" fill="#242424"/>
<path d="M36.6045 35.0276H33.3618V43.1325H36.6045V35.0276Z" fill="#242424"/>
<path d="M52.6913 4.67896H49.4486V12.068H52.6913V4.67896Z" fill="#242424"/>
<path d="M55.4526 50.3684V47.0702C53.9325 46.8656 52.7672 45.5361 52.7672 43.9509H49.5245C49.5245 47.3514 52.1338 50.1383 55.4526 50.3684Z" fill="#242424"/>
<path d="M77.2904 34.644H74.0224C73.8197 36.1781 72.5024 37.3542 70.9317 37.3542V40.6269C74.3011 40.6269 77.0624 37.9934 77.2904 34.644Z" fill="#242424"/>
<path d="M77.2904 43.4137C77.0878 40.0643 74.3011 37.4053 70.9317 37.4053V40.6779C72.5277 40.6779 73.8451 41.8796 74.0477 43.4137H77.2904Z" fill="#242424"/>
<path d="M69.2087 28.1501H65.966V36.5875H69.2087V28.1501Z" fill="#242424"/>
<path d="M69.2087 41.522H65.966V49.857H69.2087V41.522Z" fill="#242424"/>
<path d="M72.4264 37.3289H65.8396V40.5759H72.4264V37.3289Z" fill="#242424"/>
<path d="M85.6252 33.3403H82.3824V36.5874H85.6252V33.3403Z" fill="#242424"/>
<path d="M95.1252 33.3403H91.8824V36.5874H95.1252V33.3403Z" fill="#242424"/>
<path d="M95.1252 41.394H91.8824V44.6411H95.1252V41.394Z" fill="#242424"/>
<path d="M88.3359 27.6899C85.0171 27.9201 82.3824 30.7069 82.3824 34.1074H85.6252C85.6252 32.4967 86.8158 31.1927 88.3359 30.9626V27.6899Z" fill="#242424"/>
<path d="M89.1971 27.6899V30.9882C90.7171 31.1927 91.8825 32.5222 91.8825 34.1074H95.1252C95.1252 30.7069 92.5158 27.9201 89.1971 27.6899Z" fill="#242424"/>
<path d="M80.1023 27.6387C76.7836 27.8432 74.1489 30.6557 74.1489 34.0561H77.3916C77.3916 32.4454 78.5823 31.1414 80.1023 30.9113V27.6387Z" fill="#242424"/>
<path d="M80.1023 50.4961C76.7836 50.2916 74.1489 47.4791 74.1489 44.0786H77.3916C77.3916 45.6894 78.5823 47.0189 80.1023 47.2234V50.4961Z" fill="#242424"/>
<path d="M95.1252 43.823H91.9078V49.8314H95.1252V43.823Z" fill="#242424"/>
<path d="M85.6252 41.394H82.3824V44.6411H85.6252V41.394Z" fill="#242424"/>
<path d="M85.6253 43.823H82.4079V49.8314H85.6253V43.823Z" fill="#242424"/>
<path d="M95.1253 37.3289H82.3824V40.5759H95.1253V37.3289Z" fill="#242424"/>
<path d="M10.0041 5.625H6.76141V8.87209H10.0041V5.625Z" fill="#242424"/>
<path d="M19.5044 5.625H16.2617V8.87209H19.5044V5.625Z" fill="#242424"/>
<path d="M36.6045 5.625H33.3618V8.87209H36.6045V5.625Z" fill="#242424"/>
<path d="M46.1299 5.625H42.8871V8.87209H46.1299V5.625Z" fill="#242424"/>
<path d="M36.6045 13.7043H33.3618V16.9514H36.6045V13.7043Z" fill="#242424"/>
<path d="M46.1299 13.7043H42.8871V16.9514H46.1299V13.7043Z" fill="#242424"/>
<path d="M56.238 22.6785C59.5567 22.4739 62.1914 19.6615 62.1914 16.261H58.9487C58.9487 17.8717 57.758 19.2013 56.238 19.4058V22.6785Z" fill="#242424"/>
<path d="M55.3767 22.6529V19.3802C53.8567 19.1757 52.6913 17.8462 52.6913 16.261H49.4486C49.4486 19.6615 52.058 22.4484 55.3767 22.6529Z" fill="#242424"/>
<path d="M52.6913 12.9373H49.4486V16.9514H52.6913V12.9373Z" fill="#242424"/>
<path d="M10.0041 9.9458H6.76141V16.9513H10.0041V9.9458Z" fill="#242424"/>
<path d="M12.7148 0C9.39612 0.230109 6.76141 3.01698 6.76141 6.41748H10.0041C10.0041 4.80672 11.1948 3.50277 12.7148 3.27266V0Z" fill="#242424"/>
<path d="M13.5761 0V3.29823C15.0961 3.50277 16.2615 4.83229 16.2615 6.41748H19.5042C19.5042 3.01698 16.8948 0.230109 13.5761 0Z" fill="#242424"/>
<path d="M4.02563 22.5251C7.34435 22.3206 9.97905 19.5337 9.97905 16.1077H6.73634C6.73634 17.7184 5.54566 19.0224 4.02563 19.2525V22.5251Z" fill="#242424"/>
<path d="M19.5041 9.9458H16.2867V22.1416H19.5041V9.9458Z" fill="#242424"/>
<path d="M69.133 11.2244L65.9156 15.5454V0.460449H69.133V11.2244Z" fill="#242424"/>
<path d="M78.8104 22.1929H75.593V11.7101L78.8104 7.59375V22.1929Z" fill="#242424"/>
<path d="M78.8105 0.0253906L65.9156 17.5392V22.7806L78.8105 5.3946V0.0253906Z" fill="#242424"/>
<path d="M19.3777 39.1953L16.1603 43.235V38.9908L19.3777 34.6443V39.1953Z" fill="#242424"/>
<path d="M29.6883 49.8824H26.4709V38.8883L29.6883 35.0276V49.8824Z" fill="#242424"/>
<path d="M29.6885 27.7153L16.1603 45.2292V50.4706L29.6885 33.0845V27.7153Z" fill="#242424"/>
<path d="M19.3775 27.7153L4 45.2292V50.4706L19.3775 33.0845V27.7153Z" fill="#242424"/>
<path d="M74.1491 55.0728C69.513 55.3796 65.8397 59.2659 65.8397 64.0214H70.3744C70.3744 61.7971 72.0211 59.9306 74.1744 59.6494V55.0728H74.1491Z" fill="#242424"/>
<path d="M75.3397 55.0728V59.6494C77.4677 59.9562 79.0891 61.7971 79.0891 64.0214H83.6238C83.6238 59.2659 79.9504 55.3796 75.3397 55.0728Z" fill="#242424"/>
<path d="M87.4744 55.0728C82.8383 55.3796 79.1649 59.2659 79.1649 64.0214H83.6996C83.6996 61.7971 85.3463 59.9306 87.4997 59.6494V55.0728H87.4744Z" fill="#242424"/>
<path d="M88.6653 55.0728V59.6494C90.7933 59.9562 92.4147 61.7971 92.4147 64.0214H96.9494C96.9494 59.2659 93.3013 55.3796 88.6653 55.0728Z" fill="#242424"/>
<path d="M80.8371 75.5784C78.6077 74.479 70.9316 70.2859 70.5769 65.249H65.8395C66.1942 72.7659 77.9997 78.9789 80.8117 80.3595V75.5784H80.8371Z" fill="#242424"/>
<path d="M92.2878 65.2485C91.9584 70.2854 84.257 74.4785 82.0276 75.5779V80.359C84.8397 78.9784 96.6705 72.7654 96.9998 65.2485H92.2878Z" fill="#242424"/>
</g>
<defs>
<filter id="filter0_d_3120_31" x="0" y="0" width="101" height="88.3596" filterUnits="userSpaceOnUse" color-interpolation-filters="sRGB">
<feFlood flood-opacity="0" result="BackgroundImageFix"/>
<feColorMatrix in="SourceAlpha" type="matrix" values="0 0 0 0 0 0 0 0 0 0 0 0 0 0 0 0 0 0 127 0" result="hardAlpha"/>
<feOffset dy="4"/>
<feGaussianBlur stdDeviation="2"/>
<feComposite in2="hardAlpha" operator="out"/>
<feColorMatrix type="matrix" values="0 0 0 0 0 0 0 0 0 0 0 0 0 0 0 0 0 0 0.25 0"/>
<feBlend mode="normal" in2="BackgroundImageFix" result="effect1_dropShadow_3120_31"/>
<feBlend mode="normal" in="SourceGraphic" in2="effect1_dropShadow_3120_31" result="shape"/>
</filter>
</defs>
</svg>
